# xmcd
# 
# Track frame offsets:
#     150
#     16580
#     34125
#     52832
#     68262
#     82395
#     97755
#     116857
#     133025
#     150335
#     167292
#     183035
#     198190
#     216182
#     229250
#     245677
# 
# Disc length: 3473
# 
# Revision: 2
# Processed by: cddbd v1.5.2PL0 Copyright (c) Steve Scherf et al.
# Submitted via: fre:ac v1.0.17
# 
DISCID=c00d8f10
DTITLE=藤圭子 - 圭子の夢は夜ひらく
DYEAR=2000
DGENRE=Soul
TTITLE0=新宿の女
TTITLE1=女のブルース
TTITLE2=圭子の夢は夜ひらく
TTITLE3=命預けます
TTITLE4=女は恋に生きてゆく
TTITLE5=京都から博多まで
TTITLE6=別れの旅
TTITLE7=明日から私は
TTITLE8=私は京都へ帰ります
TTITLE9=はしご酒
TTITLE10=京都ブルース
TTITLE11=生きてるだけの女
TTITLE12=面影平野
TTITLE13=赤坂の夜は更けて
TTITLE14=暗い港のブルース
TTITLE15=棄てるものがあるうちはいい
EXTD=YEAR: 2000
EXTT0=
EXTT1=
EXTT2=
EXTT3=
EXTT4=
EXTT5=
EXTT6=
EXTT7=
EXTT8=
EXTT9=
EXTT10=
EXTT11=
EXTT12=
EXTT13=
EXTT14=
EXTT15=
PLAYORDER=
